<svg viewBox="0 0 24 24"><path d="M12 0a12 12 0 1 0 0 24 12 12 0 0 0 0-24zm9.57 9.1a.6.6 0 0 0-.2-.14c-.27-.1-1.36.6-1.52.26-.11-.23-.33.14-.58 0-.12-.06-.46-.52-.61-.46-.32.11.48.97.7 1.09.2-.16.85-.47 1-.04.26.8-.75 1.7-1.27 2.17-.78.7-.63-.46-1.16-.86-.28-.21-.27-.67-.56-.83-.12-.07-.7-.73-.69-.82l-.02.17c-.1.07-.3-.27-.31-.33 0 .3.48.78.64 1.02.27.4.42 1 .76 1.34.18.18.86.92 1.04.9l.92-.43c.65.15-1.53 3.23-1.73 3.62-.18.32.13 1.1.1 1.49-.02.43-.36.57-.7.81-.34.26-.26.75-.55.94-.52.32-.9 1.36-1.64 1.36-.22 0-1.15.36-1.27 0-.1-.25-.23-.45-.36-.7-.13-.26-.02-.52-.18-.74-.1-.15-.47-.5-.5-.68-.01-.16.1-.63.27-.72.24-.11.05-.46.02-.66a1.34 1.34 0 0 0-.53-.86c-.4-.3-.2-.54-.1-.97 0-.2-.13-.48-.4-.4-.57.17-.4-.44-.82-.41-.3.02-.54.2-.82.29-.35.1-.7-.08-1.05-.13-1.42-.17-1.89-1.8-1.51-2.97.03-.2-.12-.55-.05-.7.16-.35.48-.75.77-1.02.16-.15.36-.11.55-.23.29-.18.3-.56.58-.79.4-.33.95-.32 1.48-.4.28-.03 1.35-.26 1.52-.05 0 .04.19.61-.02.58.44.02 1.06.75 1.47.58.22-.09.14-.74.58-.42.26.19 1.45.27 1.7.07.14-.13.23-.94.05-1.04.11.12-.62.13-.7.1-.11-.04-.23.12-.42.03.12.05-.65-.36-.22-.68-.18.14-.35-.03-.54.11-.14.11.06.18-.13.28-.31.16-.54-.53-.65-.6-.12-.08-1.03-.72-.78-.3l.8.79c-.04.02-.21-.3-.21-.06.05-.14.02.58-.1.35-.06-.1.08-.14 0-.27 0-.09-.23-.17-.28-.23-.12-.16-.46-.5-.64-.58-.05-.03-.77.08-.83.1-.07.1-.13.2-.18.32a2 2 0 0 0-.43.22l-.16.35c-.06.06-.77.3-.77.3.03-.07-.5-.17-.46-.32.04-.17.22-.69.17-.88-.05-.2 1.09.3 1.16-.23.03-.23.05-.5-.32-.53.07 0 .7-.25.8-.37.16-.17.5-.45.74-.45.29 0 .23-.41.36-.62.13.06-.07.38.08.51 0-.1.45.06.5.04.1-.06.69-.03.6-.3-.1-.28.05-.2.18-.26-.02.01.25-.45.36-.45-.1-.1-.4.1-.51.1-.3-.02-.18-.52-.06-.67.09-.12-.25-.26-.25-.04 0 .33-.32.64-.25 1.08.11.66-.74-.16-.81-.12-.28.17-.52-.21-.37-.45.15-.23.51-.22.66-.48.1-.18.23-.39.39-.52.54-.45.69-.1 1.23-.04.52.05.17.12.1.32s.3.27.41.1c.08-.09.24-.32.3-.5.08-.17.58-.2.53-.36a10.05 10.05 0 0 1 5.7 6.32zM10.45 5.32l.07-.09.08-.02c.04-.03.08-.11.15-.1.04 0 .14.1.1.15-.03.05-.06-.05-.07.1-.02.17-.2.17-.32.22-.08.04-.17-.02-.09-.1l.1-.11-.02-.05zm.45.24c.04-.04.13 0 .15-.09.01-.08.07-.18-.01-.33-.02-.05.12-.09.05-.14l-.1.03s.15-.67.36-.37l-.1.1c.14.14.18.48.22.7.13.06.33.07.1.19.12-.02-.62.31-.72.17-.07-.08.32-.13.31-.17 0-.01-.32-.02-.26-.09zm1.43-3.54l-.36.32c-.36.3-1.28.89-1.8.7-.52-.17-1.64.68-1.82.68-.07 0 0-.64.36-.69-.14.02 1-.57 1.19-.8A9.98 9.98 0 0 1 12 2l.33.02zM7.24 3.2c.07.08.28.09-.03.29-.18.1-.37.8-.54.8-.51.23-.55-.43-1.11.42-.08.11-.4.16-.65.23A10.2 10.2 0 0 1 7.24 3.2zM2 12c0-.54.06-1.07.14-1.59l.3.19c.1.13.1.72.16.91.14.48.48.75.75 1.19.15.26.41.92.33 1.2.1-.18 1.08.82 1.26 1.03.42.5.74 1.09.06 1.57-.22.16.33 1.14.05 1.39l-.37.09c-.22.14-.23.4-.16.63A9.94 9.94 0 0 1 2 12zm14.35-5.82c.08-.01-.11.16-.11.16.03.26.22.4.58.53.44.16.04.46-.21.39-.14-.04-.86-.26-.88.02 0 .17-.68 0-.57-.17.07-.12.05-.4.18-.57.2-.25.38-.11.39.04 0 .39.4-.38.62-.4z"/></svg>