<svg viewBox="0 0 24 24"><path d="M12 0a12.01 12.01 0 0 0 0 24 12.01 12.01 0 0 0 0-24zm10.96 12c0 .21-.02.42-.03.62-.08-.2-.2-.45-.22-.56-.04-.16-.29-.74-.29-.74s-.25-.33-.41-.41c-.17-.09-.3-.3-.58-.46-.3-.16-.41-.25-.66-.25-.25 0-.5-.33-.79-.5-.29-.16-.33-.07-.33-.07s.33.5.33.61c0 .13.37.34.75.25 0 0 .24.46.37.58.12.12-.04.25-.3.41-.24.17-.2.13-.32.25-.13.13-.54.33-.66.41-.13.09-.62.34-.87.09-.12-.12-.08-.37-.17-.54-.08-.17-.95-1.45-1.36-2.02-.07-.1-.25-.42-.37-.5-.12-.08.29-.08.29-.08s0-.3-.04-.5.04-.5.04-.5l-.54.34c-.12.08-.25-.17-.41-.38-.17-.2-.33-.45-.37-.66-.04-.2.2-.29.2-.29l.38-.2s.45-.08.74-.04l.74.08s.13-.29-.04-.41c-.16-.13-.54-.33-.7-.3-.17.05.08-.2.29-.36l-.46-.09-.54.25a.96.96 0 0 0-.5.33c-.17.2.06.5-.1.58a3.3 3.3 0 0 1-.4.16c-.13.05-.52 0-.52 0-.43 0-.16.4-.05.53l-.33-.4-.24-.58s-.35-.25-.52-.33a27 27 0 0 1-.67-.37l.03.37.48.49h.04l.25.34-.55.04v-.33c-.51-.12-.38-.25-.44-.3-.12-.07-.4-.28-.4-.28s-.5.08-.62.12c-.12.04-.16.17-.4.25a.78.78 0 0 0-.45.33c-.08.12-.35.5-.51.66-.17.17-.47.12-.6.12-.12 0-.72-.16-.72-.16v-.7s.08-.4.04-.52l.36-.06.6-.12.18-.13.26-.33s-.29-.2-.08-.5c.1-.13.45-.16.62-.28.16-.13.41-.2.41-.2s.3-.26.58-.55c0 0 .2-.12.46-.2 0 0 .7.62.82.62.13 0 .58-.3.58-.3s.13-.36.08-.49a8 8 0 0 0-.24-.53l-.25.37c-.12.16-.2.37-.2.37s-.6-.05-.63-.16l-.16-.46c-.04-.12-.37-.12-.62-.03-.25.08.04-.45.04-.45s.25-.31.41-.31c.17 0 .54-.21.7-.25.17-.04.67-.23.87-.23.2 0 .46.09.58.09h.62l.87-.07s.74.27.5.44c0 0 .28.18.4.3s.42-.1.6-.2A10.96 10.96 0 0 1 22.95 12zM3.26 5.54c0 .16-.23.2 0 .62.28.53.03.78.03.78l-.82.58c-.13.08-.46.54-.25.41.2-.12.45-.25.25.08-.21.34-.58.87-.67 1.08-.08.2-.5.7-.5.95s-.16.74-.11.95c.02.15-.07.57-.14.74a10.9 10.9 0 0 1 2.13-6.21c.04 0 .07.02.07.02zm1.32-1.59c1-.93 2.2-1.67 3.5-2.18l-.28.34s-.3 0-.83.58c-.54.57-.41.4-.54.57-.12.17-.08.2-.37.42-.29.2-.41.45-.41.45l-.46.17-.37-.17s-.33.13-.29-.04l.05-.14zm4.95.97l-.16-.25.16-.37.4.16v-.74l.38-.2.31.45.5.53-.33.25-.86.17v-.44l-.4.44zM14.9 8.8c.1-.08.41.12.41.12s1.04.2 1.2.33c.17.13.46.21.54.34.08.12.37.5.41.61.04.13.25.58.3.75.03.16.16.58.28.78.12.21.83 1.12 1.08 1.53l.74-.12s-.08.37-.17.5l-.45.61c-.12.17-.29.42-.54.62-.24.2-.25.41-.37.58-.12.17-.29.54-.29.54s.09.82.13.99c.04.16-.3.62-.3.62l-.37.37-.5.66.05.62-.59.46c-.2.16-.17.28-.33.45-.17.16-.82.45-.98.5-.17.04-1.08.16-1.08.16v-.37l-.02-.41s-.12-.5-.25-.66c-.12-.17-.07-.42-.27-.62-.2-.21-.29-.38-.33-.5-.04-.12.05-.5.05-.5s.16-.45.25-.62c.08-.16 0-.4-.09-.57a2.29 2.29 0 0 1-.12-.7c0-.13-.33-.34-.45-.46-.13-.12-.09-.29-.09-.45 0-.17-.12-.54-.08-.83.04-.29-.37-.08-.62 0s-.41-.08-.41-.33-.45-.04-.74.12c-.3.17-.62.17-.96.3-.33.11-.49-.13-.49-.13s-.29-.25-.5-.37c-.2-.13-.41-.38-.58-.58a4.15 4.15 0 0 1-.61-1.08c-.05-.25 0-.41 0-.7s0-.45.04-.66c.04-.2.16-.46.29-.66.12-.2.57-.46.7-.54.12-.08.41-.33.41-.5 0-.16.17-.24.25-.4.08-.17.37-.59.74-.42 0 0 .33-.04.46-.08.12-.04.45-.17.61-.25.17-.08.58-.12.58-.12s.33.13.45.13.53-.07.53-.07.18.6.18.72.13.25.33.33c.2.08 1.16.29 1.57-.04zm4.75 8.1c0 .12-.04.45-.08.62l-.17.62c-.04.16-.24.5-.37.58-.12.08-.33.33-.45.37-.12.04-.2-.3-.17-.46.05-.16.25-.62.25-.62l.08-.41c.05-.16.54-.37.54-.37l.33-.62s.04.16.04.29zM1.32 14.44a.6.6 0 0 1 .24.14c.15.14.24.2.45.3.2.08.29.2.54.32.25.13.16.05.5.42.33.37.28.37.37.58.08.2.2.4.29.53.08.13.33.2.45.3.12.08.33.16.45.16.13 0 .5.37.7.41.21.04.21.46.21.46l-.2.57-.17.62.17.5s-.25.2-.42.2c-.15 0-.2.1-.37.06a10.95 10.95 0 0 1-3.21-5.57z"/></svg>