<svg viewBox="0 0 24 24"><path d="M15.64 5.08c0-1.9-1.63-3.45-3.64-3.45a3.55 3.55 0 0 0-3.64 3.45c0 1.9 1.63 3.44 3.64 3.44a3.55 3.55 0 0 0 3.64-3.44zm1.73 0c0 2.8-2.4 5.07-5.37 5.07S6.63 7.88 6.63 5.08C6.63 2.28 9.03 0 12 0c2.96 0 5.37 2.27 5.37 5.08zM2.73 23.18c0 .45-.39.82-.87.82a.84.84 0 0 1-.86-.82c0-2.76 1.16-5.4 3.22-7.35A11.33 11.33 0 0 1 12 12.78c2.92 0 5.72 1.1 7.78 3.05A10.12 10.12 0 0 1 23 23.18c0 .45-.39.82-.86.82a.84.84 0 0 1-.87-.82c0-2.32-.97-4.55-2.71-6.2A9.55 9.55 0 0 0 12 14.41c-2.46 0-4.82.93-6.56 2.57a8.53 8.53 0 0 0-2.71 6.2z"/></svg>